<svg xmlns="http://www.w3.org/2000/svg" viewBox="0 0 135 40" width="135" height="40">
  <rect width="135" height="40" rx="6" fill="#000000"/>
  <path d="M20,10 C18,10 16,11.5 16,13 C16,15.5 19,23 22,23 C23,23 25,21.5 26,21.5 C27,21.5 28.5,23 29.5,23 C31.5,23 33.5,19 33.5,17 C30,16.5 29,14 29,13 C29,11 31,9.5 32,9 C30.5,7 28.5,7 27.5,7 C25,7 23.5,8.5 22.5,8.5 C21.5,8.5 21,7.5 20,7.5" fill="#ffffff"/>
  <text x="45" y="16" fill="#ffffff" font-family="sans-serif" font-size="8" font-weight="bold">Download on the</text>
  <text x="45" y="28" fill="#ffffff" font-family="sans-serif" font-size="12" font-weight="bold">App Store</text>
</svg>
